<?xml version="1.0" encoding="UTF-8"?>
<svg height="128px" viewBox="0 0 128 128" width="128px" xmlns="http://www.w3.org/2000/svg" xmlns:xlink="http://www.w3.org/1999/xlink">
    <filter id="a" height="100%" width="100%" x="0%" y="0%">
        <feColorMatrix color-interpolation-filters="sRGB" values="0 0 0 0 1 0 0 0 0 1 0 0 0 0 1 0 0 0 1 0"/>
    </filter>
    <linearGradient id="b" gradientUnits="userSpaceOnUse" x1="56.114868" x2="70.711304" y1="60.005733" y2="60.005733">
        <stop offset="0" stop-color="#3d3846"/>
        <stop offset="1" stop-color="#9a9996"/>
    </linearGradient>
    <clipPath id="c">
        <rect height="128" width="128"/>
    </clipPath>
    <clipPath id="d">
        <rect height="128" width="128"/>
    </clipPath>
    <mask id="e">
        <g filter="url(#a)">
            <g clip-path="url(#d)" filter="url(#a)">
                <g clip-path="url(#c)">
                    <path d="m 121 68 c 0 31.480469 -25.519531 57 -57 57 s -57 -25.519531 -57 -57 s 25.519531 -57 57 -57 s 57 25.519531 57 57 z m 0 0" fill="#241f31"/>
                    <path d="m -560.932739 411.010193 c 0 31.480469 -25.519532 57 -57 57 c -31.480469 0 -57 -25.519531 -57 -57 s 25.519531 -57 57 -57 c 31.480468 0 57 25.519531 57 57 z m 0 0" fill="#5e5c64" stroke="#241f31" stroke-width="0.5" transform="matrix(1 0 0 1 681.932739 -350.010193)"/>
                    <path d="m 106.835938 66.835938 c 0 23.65625 -19.179688 42.832031 -42.835938 42.832031 s -42.835938 -19.175781 -42.835938 -42.832031 c 0 -23.660157 19.179688 -42.835938 42.835938 -42.835938 s 42.835938 19.175781 42.835938 42.835938 z m 0 0" fill="#241f31"/>
                    <path d="m -575.096802 411.010193 c 0 23.65625 -19.179687 42.835937 -42.835937 42.835937 s -42.835938 -19.179687 -42.835938 -42.835937 s 19.179688 -42.835938 42.835938 -42.835938 s 42.835937 19.179688 42.835937 42.835938 z m 0 0" fill="#5e5c64" stroke="#241f31" stroke-width="0.5" transform="matrix(1 0 0 1 681.932739 -350.010193)"/>
                    <path d="m 63.414062 26.347656 c 15.753907 0 29.542969 10.582032 33.621094 25.800782 s -2.574218 31.277343 -16.21875 39.152343 c -13.644531 7.878907 -30.875 5.609375 -42.015625 -5.53125 s -13.410156 -28.371093 -5.53125 -42.015625 l 30.144531 17.402344 z m 0 0" fill="#33d17a"/>
                    <path d="m 33.269531 43.753906 c 6.214844 -10.769531 17.707031 -17.40625 30.144531 -17.40625 v 34.808594 z m 0 0" fill="#f6d32d"/>
                    <path d="m 70.710938 60.003906 c 0 3.976563 -3.265626 7.199219 -7.296876 7.199219 s -7.300781 -3.222656 -7.300781 -7.199219 c 0 -3.972656 3.269531 -7.195312 7.300781 -7.195312 s 7.296876 3.222656 7.296876 7.195312 z m 0 0" fill="url(#b)"/>
                    <path d="m 56.113281 52.808594 h 14.597657 v 7.5 h -14.597657 z m 0 0" fill="url(#b)"/>
                    <path d="m 70.710938 53.011719 c 0 4.027343 -3.265626 7.296875 -7.296876 7.296875 s -7.300781 -3.269532 -7.300781 -7.296875 c 0 -4.03125 3.269531 -7.300781 7.300781 -7.300781 s 7.296876 3.269531 7.296876 7.300781 z m 0 0" fill="#9a9996"/>
                    <path d="m -609.585083 379.728943 l -0.953125 3.347656" fill="none" stroke="#ffffff" stroke-linecap="round" stroke-width="3" transform="matrix(1 0 0 1 681.932739 -350.010193)"/>
                    <path d="m -618.518677 378.475037 v 3.484375" fill="none" stroke="#ffffff" stroke-linecap="round" stroke-width="3" transform="matrix(1 0 0 1 681.932739 -350.010193)"/>
                    <path d="m -602.221802 382.850037 l -1.738281 3.015625" fill="none" stroke="#ffffff" stroke-linecap="round" stroke-width="3" transform="matrix(1 0 0 1 681.932739 -350.010193)"/>
                    <path d="m -595.467896 388.03363 l -2.464843 2.460938" fill="none" stroke="#ffffff" stroke-linecap="round" stroke-width="3" transform="matrix(1 0 0 1 681.932739 -350.010193)"/>
                    <path d="m -590.292114 394.787537 l -3.015625 1.738281" fill="none" stroke="#ffffff" stroke-linecap="round" stroke-width="3" transform="matrix(1 0 0 1 681.932739 -350.010193)"/>
                    <path d="m -587.038208 402.650818 l -3.363281 0.902344" fill="none" stroke="#ffffff" stroke-linecap="round" stroke-width="3" transform="matrix(1 0 0 1 681.932739 -350.010193)"/>
                    <path d="m -585.928833 411.088318 h -3.480469" fill="none" stroke="#ffffff" stroke-linecap="round" stroke-width="3" transform="matrix(1 0 0 1 681.932739 -350.010193)"/>
                    <path d="m -587.042114 419.525818 l -3.363282 -0.902344" fill="none" stroke="#ffffff" stroke-linecap="round" stroke-width="3" transform="matrix(1 0 0 1 681.932739 -350.010193)"/>
                    <path d="m -595.483521 434.139099 l -2.464843 -2.464844" fill="none" stroke="#ffffff" stroke-linecap="round" stroke-width="3" transform="matrix(1 0 0 1 681.932739 -350.010193)"/>
                    <path d="m -590.299927 427.389099 l -3.015625 -1.742187" fill="none" stroke="#ffffff" stroke-linecap="round" stroke-width="3" transform="matrix(1 0 0 1 681.932739 -350.010193)"/>
                    <path d="m -602.237427 439.318787 l -1.742187 -3.015625" fill="none" stroke="#ffffff" stroke-linecap="round" stroke-width="3" transform="matrix(1 0 0 1 681.932739 -350.010193)"/>
                    <path d="m -610.100708 442.572693 l -0.902344 -3.363281" fill="none" stroke="#ffffff" stroke-linecap="round" stroke-width="3" transform="matrix(1 0 0 1 681.932739 -350.010193)"/>
                    <path d="m -618.538208 443.678162 v -3.480469" fill="none" stroke="#ffffff" stroke-linecap="round" stroke-width="3" transform="matrix(1 0 0 1 681.932739 -350.010193)"/>
                    <path d="m -626.979614 442.56488 l 0.902343 -3.363281" fill="none" stroke="#ffffff" stroke-linecap="round" stroke-width="3" transform="matrix(1 0 0 1 681.932739 -350.010193)"/>
                    <path d="m -634.838989 439.307068 l 1.742187 -3.015625" fill="none" stroke="#ffffff" stroke-linecap="round" stroke-width="3" transform="matrix(1 0 0 1 681.932739 -350.010193)"/>
                    <path d="m -641.588989 434.123474 l 2.460937 -2.460937" fill="none" stroke="#ffffff" stroke-linecap="round" stroke-width="3" transform="matrix(1 0 0 1 681.932739 -350.010193)"/>
                    <path d="m -646.768677 427.369568 l 3.015625 -1.742188" fill="none" stroke="#ffffff" stroke-linecap="round" stroke-width="3" transform="matrix(1 0 0 1 681.932739 -350.010193)"/>
                    <path d="m -650.022583 419.506287 l 3.363281 -0.902344" fill="none" stroke="#ffffff" stroke-linecap="round" stroke-width="3" transform="matrix(1 0 0 1 681.932739 -350.010193)"/>
                    <path d="m -651.131958 411.068787 h 3.484375" fill="none" stroke="#ffffff" stroke-linecap="round" stroke-width="3" transform="matrix(1 0 0 1 681.932739 -350.010193)"/>
                    <path d="m -650.018677 402.631287 l 3.363281 0.902343" fill="none" stroke="#ffffff" stroke-linecap="round" stroke-width="3" transform="matrix(1 0 0 1 681.932739 -350.010193)"/>
                    <path d="m -646.756958 394.768005 l 3.015625 1.742188" fill="none" stroke="#ffffff" stroke-linecap="round" stroke-width="3" transform="matrix(1 0 0 1 681.932739 -350.010193)"/>
                    <path d="m -641.577271 388.018005 l 2.464844 2.460938" fill="none" stroke="#ffffff" stroke-linecap="round" stroke-width="3" transform="matrix(1 0 0 1 681.932739 -350.010193)"/>
                    <path d="m -634.823364 382.838318 l 1.742187 3.015625" fill="none" stroke="#ffffff" stroke-linecap="round" stroke-width="3" transform="matrix(1 0 0 1 681.932739 -350.010193)"/>
                    <path d="m -626.956177 379.584412 l 0.898438 3.363281" fill="none" stroke="#ffffff" stroke-linecap="round" stroke-width="3" transform="matrix(1 0 0 1 681.932739 -350.010193)"/>
                    <path d="m -618.518677 378.475037 v 3.484375" fill="none" stroke="#ffffff" stroke-linecap="round" stroke-width="3" transform="matrix(1 0 0 1 681.932739 -350.010193)"/>
                </g>
            </g>
        </g>
    </mask>
    <mask id="f">
        <g filter="url(#a)">
            <rect fill-opacity="0.8" height="184.32" width="184.32" x="-28.16" y="-28.16"/>
        </g>
    </mask>
    <linearGradient id="g" gradientTransform="matrix(0 0.37 -0.98462 0 295.38501 -30.360001)" gradientUnits="userSpaceOnUse" x1="300" x2="428" y1="235" y2="235">
        <stop offset="0" stop-color="#f9f06b"/>
        <stop offset="1" stop-color="#f5c211"/>
    </linearGradient>
    <clipPath id="h">
        <rect height="128" width="128"/>
    </clipPath>
    <clipPath id="i">
        <rect height="128" width="128"/>
    </clipPath>
    <path d="m 121 68 c 0 31.480469 -25.519531 57 -57 57 s -57 -25.519531 -57 -57 s 25.519531 -57 57 -57 s 57 25.519531 57 57 z m 0 0" fill="#241f31"/>
    <path d="m 121 61 c 0 31.480469 -25.519532 57 -57 57 c -31.480469 0 -57 -25.519531 -57 -57 s 25.519531 -57 57 -57 c 31.480468 0 57 25.519531 57 57 z m 0 0" fill="#5e5c64" stroke="#241f31" stroke-width="0.5"/>
    <path d="m 106.835938 66.835938 c 0 23.65625 -19.179688 42.832031 -42.835938 42.832031 s -42.835938 -19.175781 -42.835938 -42.832031 c 0 -23.660157 19.179688 -42.835938 42.835938 -42.835938 s 42.835938 19.175781 42.835938 42.835938 z m 0 0" fill="#241f31"/>
    <path d="m 106.835937 61 c 0 23.65625 -19.179687 42.835937 -42.835937 42.835937 s -42.835938 -19.179687 -42.835938 -42.835937 s 19.179688 -42.835938 42.835938 -42.835938 s 42.835937 19.179688 42.835937 42.835938 z m 0 0" fill="#5e5c64" stroke="#241f31" stroke-width="0.5"/>
    <path d="m 63.414062 26.347656 c 15.753907 0 29.542969 10.582032 33.621094 25.800782 s -2.574218 31.277343 -16.21875 39.152343 c -13.644531 7.878907 -30.875 5.609375 -42.015625 -5.53125 s -13.410156 -28.371093 -5.53125 -42.015625 l 30.144531 17.402344 z m 0 0" fill="#33d17a"/>
    <path d="m 33.269531 43.753906 c 6.214844 -10.769531 17.707031 -17.40625 30.144531 -17.40625 v 34.808594 z m 0 0" fill="#f6d32d"/>
    <path d="m 70.710938 60.003906 c 0 3.976563 -3.265626 7.199219 -7.296876 7.199219 s -7.300781 -3.222656 -7.300781 -7.199219 c 0 -3.972656 3.269531 -7.195312 7.300781 -7.195312 s 7.296876 3.222656 7.296876 7.195312 z m 0 0" fill="url(#b)"/>
    <path d="m 56.113281 52.808594 h 14.597657 v 7.5 h -14.597657 z m 0 0" fill="url(#b)"/>
    <path d="m 70.710938 53.011719 c 0 4.027343 -3.265626 7.296875 -7.296876 7.296875 s -7.300781 -3.269532 -7.300781 -7.296875 c 0 -4.03125 3.269531 -7.300781 7.300781 -7.300781 s 7.296876 3.269531 7.296876 7.300781 z m 0 0" fill="#9a9996"/>
    <g fill="none" stroke="#ffffff" stroke-linecap="round" stroke-width="3">
        <path d="m 72.347656 29.71875 l -0.953125 3.347656"/>
        <path d="m 63.414062 28.464844 v 3.484375"/>
        <path d="m 79.710937 32.839844 l -1.738281 3.015625"/>
        <path d="m 86.464843 38.023437 l -2.464843 2.460938"/>
        <path d="m 91.640625 44.777344 l -3.015625 1.738281"/>
        <path d="m 94.894531 52.640625 l -3.363281 0.902344"/>
        <path d="m 96.003906 61.078125 h -3.480469"/>
        <path d="m 94.890625 69.515625 l -3.363282 -0.902344"/>
        <path d="m 86.449218 84.128906 l -2.464843 -2.464844"/>
        <path d="m 91.632812 77.378906 l -3.015625 -1.742187"/>
        <path d="m 79.695312 89.308594 l -1.742187 -3.015625"/>
        <path d="m 71.832031 92.5625 l -0.902344 -3.363281"/>
        <path d="m 63.394531 93.667969 v -3.480469"/>
        <path d="m 54.953125 92.554687 l 0.902343 -3.363281"/>
        <path d="m 47.09375 89.296875 l 1.742187 -3.015625"/>
        <path d="m 40.34375 84.113281 l 2.460937 -2.460937"/>
        <path d="m 35.164062 77.359375 l 3.015625 -1.742188"/>
        <path d="m 31.910156 69.496094 l 3.363281 -0.902344"/>
        <path d="m 30.800781 61.058594 h 3.484375"/>
        <path d="m 31.914062 52.621094 l 3.363281 0.902343"/>
        <path d="m 35.175781 44.757812 l 3.015625 1.742188"/>
        <path d="m 40.355468 38.007812 l 2.464844 2.460938"/>
        <path d="m 47.109375 32.828125 l 1.742187 3.015625"/>
        <path d="m 54.976562 29.574219 l 0.898438 3.363281"/>
        <path d="m 63.414062 28.464844 v 3.484375"/>
    </g>
    <g mask="url(#e)">
        <g clip-path="url(#i)">
            <g mask="url(#f)">
                <g clip-path="url(#h)">
                    <path d="m 128 80.640625 v 47.359375 h -128 v -47.359375 z m 0 0" fill="url(#g)"/>
                    <path d="m 13.308594 80.640625 l 47.355468 47.359375 h 21.214844 l -47.359375 -47.359375 z m 42.421875 0 l 47.363281 47.359375 h 21.214844 l -47.363282 -47.359375 z m 42.429687 0 l 29.839844 29.839844 v -21.210938 l -8.628906 -8.628906 z m -98.160156 7.90625 v 21.214844 l 18.238281 18.238281 h 21.214844 z m 0 0"/>
                </g>
            </g>
        </g>
    </g>
</svg>
