<?xml version="1.0" encoding="UTF-8"?>
<svg height="128px" viewBox="0 0 128 128" width="128px" xmlns="http://www.w3.org/2000/svg" xmlns:xlink="http://www.w3.org/1999/xlink">
    <filter id="a" height="100%" width="100%" x="0%" y="0%">
        <feColorMatrix color-interpolation-filters="sRGB" values="0 0 0 0 1 0 0 0 0 1 0 0 0 0 1 0 0 0 1 0"/>
    </filter>
    <linearGradient id="b" gradientUnits="userSpaceOnUse">
        <stop offset="0" stop-color="#241f31"/>
        <stop offset="0.498613" stop-color="#929098"/>
        <stop offset="1" stop-color="#241f31"/>
    </linearGradient>
    <linearGradient id="c" x1="7" x2="121" xlink:href="#b" y1="68" y2="68"/>
    <linearGradient id="d" x1="21.165954" x2="106.834045" xlink:href="#b" y1="64.3515" y2="64.3515"/>
    <linearGradient id="e" gradientUnits="userSpaceOnUse" x1="56.114868" x2="70.711304" y1="59.342596" y2="59.342596">
        <stop offset="0" stop-color="#3d3846"/>
        <stop offset="0.5" stop-color="#9a9996"/>
        <stop offset="1" stop-color="#3d3846"/>
    </linearGradient>
    <clipPath id="f">
        <rect height="128" width="128"/>
    </clipPath>
    <clipPath id="g">
        <rect height="128" width="128"/>
    </clipPath>
    <mask id="h">
        <g filter="url(#a)">
            <g clip-path="url(#g)" filter="url(#a)">
                <g clip-path="url(#f)">
                    <path d="m 121 68 c 0 31.480469 -25.519531 57 -57 57 s -57 -25.519531 -57 -57 s 25.519531 -57 57 -57 s 57 25.519531 57 57 z m 0 0" fill="url(#c)"/>
                    <path d="m -560.932739 411.010193 c 0 31.480469 -25.519532 57 -57 57 c -31.480469 0 -57 -25.519531 -57 -57 s 25.519531 -57 57 -57 c 31.480468 0 57 25.519531 57 57 z m 0 0" fill="#5e5c64" stroke="#241f31" stroke-width="0.6" transform="matrix(1 0 0 1 681.932739 -350.010193)"/>
                    <path d="m 106.835938 64.351562 c 0 23.65625 -19.179688 42.832032 -42.835938 42.832032 s -42.835938 -19.175782 -42.835938 -42.832032 s 19.179688 -42.835937 42.835938 -42.835937 s 42.835938 19.179687 42.835938 42.835937 z m 0 0" fill="url(#d)"/>
                    <path d="m -575.096802 408.525818 c 0 23.660156 -19.179687 42.835937 -42.835937 42.835937 s -42.835938 -19.175781 -42.835938 -42.835937 c 0 -23.65625 19.179688 -42.832031 42.835938 -42.832031 s 42.835937 19.175781 42.835937 42.832031 z m 0 0" fill="#5e5c64" stroke="#241f31" stroke-width="0.6" transform="matrix(1 0 0 1 681.932739 -350.010193)"/>
                    <path d="m 63.414062 23.867188 c 15.753907 0 29.542969 10.582031 33.621094 25.796874 c 4.078125 15.21875 -2.574218 31.277344 -16.21875 39.15625 c -13.644531 7.875 -30.875 5.605469 -42.015625 -5.53125 c -11.140625 -11.140624 -13.410156 -28.375 -5.53125 -42.019531 l 30.144531 17.40625 z m 0 0" fill="#33d17a"/>
                    <path d="m 33.269531 41.269531 c 6.214844 -10.769531 17.707031 -17.402343 30.144531 -17.402343 v 34.808593 z m 0 0" fill="#f6d32d"/>
                    <path d="m 70.710938 59.34375 c 0 3.972656 -3.265626 7.195312 -7.296876 7.195312 s -7.300781 -3.222656 -7.300781 -7.195312 c 0 -3.976562 3.269531 -7.199219 7.300781 -7.199219 s 7.296876 3.222657 7.296876 7.199219 z m 0 0" fill="url(#e)"/>
                    <path d="m 56.113281 52.144531 h 14.597657 v 7.5 h -14.597657 z m 0 0" fill="url(#e)"/>
                    <path d="m 70.710938 52.347656 c 0 4.03125 -3.265626 7.296875 -7.296876 7.296875 s -7.300781 -3.265625 -7.300781 -7.296875 s 3.269531 -7.300781 7.300781 -7.300781 s 7.296876 3.269531 7.296876 7.300781 z m 0 0" fill="#9a9996"/>
                    <path d="m -609.585083 377.244568 l -0.953125 3.347656" fill="none" stroke="#ffffff" stroke-linecap="round" stroke-width="3" transform="matrix(1 0 0 1 681.932739 -350.010193)"/>
                    <path d="m -618.518677 375.994568 v 3.480469" fill="none" stroke="#ffffff" stroke-linecap="round" stroke-width="3" transform="matrix(1 0 0 1 681.932739 -350.010193)"/>
                    <path d="m -602.221802 380.365662 l -1.738281 3.015625" fill="none" stroke="#ffffff" stroke-linecap="round" stroke-width="3" transform="matrix(1 0 0 1 681.932739 -350.010193)"/>
                    <path d="m -595.467896 385.549255 l -2.464843 2.464844" fill="none" stroke="#ffffff" stroke-linecap="round" stroke-width="3" transform="matrix(1 0 0 1 681.932739 -350.010193)"/>
                    <path d="m -590.292114 392.303162 l -3.015625 1.742187" fill="none" stroke="#ffffff" stroke-linecap="round" stroke-width="3" transform="matrix(1 0 0 1 681.932739 -350.010193)"/>
                    <path d="m -587.038208 400.166443 l -3.363281 0.902344" fill="none" stroke="#ffffff" stroke-linecap="round" stroke-width="3" transform="matrix(1 0 0 1 681.932739 -350.010193)"/>
                    <path d="m -585.928833 408.607849 h -3.480469" fill="none" stroke="#ffffff" stroke-linecap="round" stroke-width="3" transform="matrix(1 0 0 1 681.932739 -350.010193)"/>
                    <path d="m -587.042114 417.045349 l -3.363282 -0.902344" fill="none" stroke="#ffffff" stroke-linecap="round" stroke-width="3" transform="matrix(1 0 0 1 681.932739 -350.010193)"/>
                    <path d="m -595.483521 431.654724 l -2.464843 -2.460937" fill="none" stroke="#ffffff" stroke-linecap="round" stroke-width="3" transform="matrix(1 0 0 1 681.932739 -350.010193)"/>
                    <path d="m -590.299927 424.904724 l -3.015625 -1.742187" fill="none" stroke="#ffffff" stroke-linecap="round" stroke-width="3" transform="matrix(1 0 0 1 681.932739 -350.010193)"/>
                    <path d="m -602.237427 436.834412 l -1.742187 -3.015625" fill="none" stroke="#ffffff" stroke-linecap="round" stroke-width="3" transform="matrix(1 0 0 1 681.932739 -350.010193)"/>
                    <path d="m -610.100708 440.088318 l -0.902344 -3.363281" fill="none" stroke="#ffffff" stroke-linecap="round" stroke-width="3" transform="matrix(1 0 0 1 681.932739 -350.010193)"/>
                    <path d="m -618.538208 441.197693 v -3.484375" fill="none" stroke="#ffffff" stroke-linecap="round" stroke-width="3" transform="matrix(1 0 0 1 681.932739 -350.010193)"/>
                    <path d="m -626.979614 440.084412 l 0.902343 -3.363282" fill="none" stroke="#ffffff" stroke-linecap="round" stroke-width="3" transform="matrix(1 0 0 1 681.932739 -350.010193)"/>
                    <path d="m -634.838989 436.822693 l 1.742187 -3.015625" fill="none" stroke="#ffffff" stroke-linecap="round" stroke-width="3" transform="matrix(1 0 0 1 681.932739 -350.010193)"/>
                    <path d="m -641.588989 431.643005 l 2.460937 -2.464843" fill="none" stroke="#ffffff" stroke-linecap="round" stroke-width="3" transform="matrix(1 0 0 1 681.932739 -350.010193)"/>
                    <path d="m -646.768677 424.889099 l 3.015625 -1.742187" fill="none" stroke="#ffffff" stroke-linecap="round" stroke-width="3" transform="matrix(1 0 0 1 681.932739 -350.010193)"/>
                    <path d="m -650.022583 417.021912 l 3.363281 -0.898438" fill="none" stroke="#ffffff" stroke-linecap="round" stroke-width="3" transform="matrix(1 0 0 1 681.932739 -350.010193)"/>
                    <path d="m -651.131958 408.584412 h 3.484375" fill="none" stroke="#ffffff" stroke-linecap="round" stroke-width="3" transform="matrix(1 0 0 1 681.932739 -350.010193)"/>
                    <path d="m -650.018677 400.146912 l 3.363281 0.902343" fill="none" stroke="#ffffff" stroke-linecap="round" stroke-width="3" transform="matrix(1 0 0 1 681.932739 -350.010193)"/>
                    <path d="m -646.756958 392.287537 l 3.015625 1.738281" fill="none" stroke="#ffffff" stroke-linecap="round" stroke-width="3" transform="matrix(1 0 0 1 681.932739 -350.010193)"/>
                    <path d="m -641.577271 385.537537 l 2.464844 2.460937" fill="none" stroke="#ffffff" stroke-linecap="round" stroke-width="3" transform="matrix(1 0 0 1 681.932739 -350.010193)"/>
                    <path d="m -634.823364 380.357849 l 1.742187 3.015625" fill="none" stroke="#ffffff" stroke-linecap="round" stroke-width="3" transform="matrix(1 0 0 1 681.932739 -350.010193)"/>
                    <path d="m -626.956177 377.103943 l 0.898438 3.363281" fill="none" stroke="#ffffff" stroke-linecap="round" stroke-width="3" transform="matrix(1 0 0 1 681.932739 -350.010193)"/>
                    <path d="m -618.518677 375.994568 v 3.480469" fill="none" stroke="#ffffff" stroke-linecap="round" stroke-width="3" transform="matrix(1 0 0 1 681.932739 -350.010193)"/>
                </g>
            </g>
        </g>
    </mask>
    <mask id="i">
        <g filter="url(#a)">
            <rect fill-opacity="0.8" height="184.32" width="184.32" x="-28.16" y="-28.16"/>
        </g>
    </mask>
    <linearGradient id="j" gradientTransform="matrix(0 0.37 -0.98462 0 295.38501 -30.360001)" gradientUnits="userSpaceOnUse" x1="300" x2="428" y1="235" y2="235">
        <stop offset="0" stop-color="#f9f06b"/>
        <stop offset="1" stop-color="#f5c211"/>
    </linearGradient>
    <clipPath id="k">
        <rect height="128" width="128"/>
    </clipPath>
    <clipPath id="l">
        <rect height="128" width="128"/>
    </clipPath>
    <path d="m 121 68 c 0 31.480469 -25.519531 57 -57 57 s -57 -25.519531 -57 -57 s 25.519531 -57 57 -57 s 57 25.519531 57 57 z m 0 0" fill="url(#c)"/>
    <path d="m 121 61 c 0 31.480469 -25.519532 57 -57 57 c -31.480469 0 -57 -25.519531 -57 -57 s 25.519531 -57 57 -57 c 31.480468 0 57 25.519531 57 57 z m 0 0" fill="#5e5c64" stroke="#241f31" stroke-width="0.6"/>
    <path d="m 106.835938 64.351562 c 0 23.65625 -19.179688 42.832032 -42.835938 42.832032 s -42.835938 -19.175782 -42.835938 -42.832032 s 19.179688 -42.835937 42.835938 -42.835937 s 42.835938 19.179687 42.835938 42.835937 z m 0 0" fill="url(#d)"/>
    <path d="m 106.835937 58.515625 c 0 23.660156 -19.179687 42.835937 -42.835937 42.835937 s -42.835938 -19.175781 -42.835938 -42.835937 c 0 -23.65625 19.179688 -42.832031 42.835938 -42.832031 s 42.835937 19.175781 42.835937 42.832031 z m 0 0" fill="#5e5c64" stroke="#241f31" stroke-width="0.6"/>
    <path d="m 63.414062 23.867188 c 15.753907 0 29.542969 10.582031 33.621094 25.796874 c 4.078125 15.21875 -2.574218 31.277344 -16.21875 39.15625 c -13.644531 7.875 -30.875 5.605469 -42.015625 -5.53125 c -11.140625 -11.140624 -13.410156 -28.375 -5.53125 -42.019531 l 30.144531 17.40625 z m 0 0" fill="#33d17a"/>
    <path d="m 33.269531 41.269531 c 6.214844 -10.769531 17.707031 -17.402343 30.144531 -17.402343 v 34.808593 z m 0 0" fill="#f6d32d"/>
    <path d="m 70.710938 59.34375 c 0 3.972656 -3.265626 7.195312 -7.296876 7.195312 s -7.300781 -3.222656 -7.300781 -7.195312 c 0 -3.976562 3.269531 -7.199219 7.300781 -7.199219 s 7.296876 3.222657 7.296876 7.199219 z m 0 0" fill="url(#e)"/>
    <path d="m 56.113281 52.144531 h 14.597657 v 7.5 h -14.597657 z m 0 0" fill="url(#e)"/>
    <path d="m 70.710938 52.347656 c 0 4.03125 -3.265626 7.296875 -7.296876 7.296875 s -7.300781 -3.265625 -7.300781 -7.296875 s 3.269531 -7.300781 7.300781 -7.300781 s 7.296876 3.269531 7.296876 7.300781 z m 0 0" fill="#9a9996"/>
    <g fill="none" stroke="#ffffff" stroke-linecap="round" stroke-width="3">
        <path d="m 72.347656 27.234375 l -0.953125 3.347656"/>
        <path d="m 63.414062 25.984375 v 3.480469"/>
        <path d="m 79.710937 30.355469 l -1.738281 3.015625"/>
        <path d="m 86.464843 35.539062 l -2.464843 2.464844"/>
        <path d="m 91.640625 42.292969 l -3.015625 1.742187"/>
        <path d="m 94.894531 50.15625 l -3.363281 0.902344"/>
        <path d="m 96.003906 58.597656 h -3.480469"/>
        <path d="m 94.890625 67.035156 l -3.363282 -0.902344"/>
        <path d="m 86.449218 81.644531 l -2.464843 -2.460937"/>
        <path d="m 91.632812 74.894531 l -3.015625 -1.742187"/>
        <path d="m 79.695312 86.824219 l -1.742187 -3.015625"/>
        <path d="m 71.832031 90.078125 l -0.902344 -3.363281"/>
        <path d="m 63.394531 91.1875 v -3.484375"/>
        <path d="m 54.953125 90.074219 l 0.902343 -3.363282"/>
        <path d="m 47.09375 86.8125 l 1.742187 -3.015625"/>
        <path d="m 40.34375 81.632812 l 2.460937 -2.464843"/>
        <path d="m 35.164062 74.878906 l 3.015625 -1.742187"/>
        <path d="m 31.910156 67.011719 l 3.363281 -0.898438"/>
        <path d="m 30.800781 58.574219 h 3.484375"/>
        <path d="m 31.914062 50.136719 l 3.363281 0.902343"/>
        <path d="m 35.175781 42.277344 l 3.015625 1.738281"/>
        <path d="m 40.355468 35.527344 l 2.464844 2.460937"/>
        <path d="m 47.109375 30.347656 l 1.742187 3.015625"/>
        <path d="m 54.976562 27.09375 l 0.898438 3.363281"/>
        <path d="m 63.414062 25.984375 v 3.480469"/>
    </g>
    <g mask="url(#h)">
        <g clip-path="url(#l)">
            <g mask="url(#i)">
                <g clip-path="url(#k)">
                    <path d="m 128 80.640625 v 47.359375 h -128 v -47.359375 z m 0 0" fill="url(#j)"/>
                    <path d="m 13.308594 80.640625 l 47.355468 47.359375 h 21.214844 l -47.359375 -47.359375 z m 42.421875 0 l 47.363281 47.359375 h 21.214844 l -47.363282 -47.359375 z m 42.429687 0 l 29.839844 29.839844 v -21.210938 l -8.628906 -8.628906 z m -98.160156 7.90625 v 21.214844 l 18.238281 18.238281 h 21.214844 z m 0 0"/>
                </g>
            </g>
        </g>
    </g>
</svg>
